<svg width="177" height="97" viewBox="0 0 177 97" fill="none" xmlns="http://www.w3.org/2000/svg">
<path d="M173.664 2.34628C172.921 1.60247 172.039 1.0124 171.068 0.609802C170.097 0.207208 169.056 0 168.004 0C166.953 0 165.912 0.207208 164.941 0.609802C163.97 1.0124 163.087 1.60247 162.344 2.34628L88.0044 76.6963L13.6644 2.34628C12.1633 0.845158 10.1274 0.00183101 8.00445 0.00183105C5.88154 0.0018311 3.84557 0.845158 2.34445 2.34628C0.843323 3.84741 4.18477e-08 5.88337 0 8.00629C-4.18477e-08 10.1292 0.843323 12.1652 2.34445 13.6663L82.3444 93.6663C83.0874 94.4101 83.9697 95.0002 84.9409 95.4028C85.9121 95.8054 86.9531 96.0126 88.0044 96.0126C89.0558 96.0126 90.0968 95.8054 91.068 95.4028C92.0392 95.0002 92.9215 94.4101 93.6645 93.6663L173.664 13.6663C174.408 12.9233 174.998 12.041 175.401 11.0698C175.804 10.0986 176.011 9.05761 176.011 8.00629C176.011 6.95496 175.804 5.91395 175.401 4.94276C174.998 3.97158 174.408 3.08927 173.664 2.34628Z" fill="#001559"/>
</svg>
