<svg width="100" height="100" viewBox="0 0 100 100" fill="none" xmlns="http://www.w3.org/2000/svg">
<rect width="100" height="100" rx="8" fill="#001559"/>
<path d="M32.5918 28.225C32.591 29.8751 31.9269 31.4574 30.7456 32.6236C29.5643 33.7899 27.9625 34.4446 26.2928 34.4438C24.623 34.4429 23.0219 33.7866 21.8418 32.6192C20.6617 31.4518 19.9992 29.8689 20 28.2188C20.0008 26.5686 20.665 24.9864 21.8463 23.8201C23.0276 22.6539 24.6293 21.9992 26.2991 22C27.9688 22.0008 29.5699 22.6571 30.75 23.8245C31.9301 24.992 32.5927 26.5748 32.5918 28.225ZM32.7807 39.0511H20.1889V78H32.7807V39.0511ZM52.6758 39.0511H40.1469V78H52.5498V57.5611C52.5498 46.1751 67.5656 45.1174 67.5656 57.5611V78H80V53.3303C80 34.1358 57.7754 34.8513 52.5498 44.2774L52.6758 39.0511Z" fill="white"/>
</svg>
