<svg width="100" height="100" viewBox="0 0 100 100" fill="none" xmlns="http://www.w3.org/2000/svg">
<rect width="100" height="100" rx="8" fill="#001559"/>
<path fill-rule="evenodd" clip-rule="evenodd" d="M22.6773 32.6773C23.111 32.2436 23.6992 32 24.3125 32H75.1875C75.8008 32 76.389 32.2436 76.8227 32.6773C76.9984 32.8531 77.143 33.0542 77.2527 33.272L75.7498 34.3125L51.0658 51.4011C50.6792 51.6686 50.2202 51.8119 49.75 51.8119C49.2798 51.8119 48.8208 51.6686 48.4342 51.4011L23.7502 34.3125L22.2473 33.272C22.357 33.0542 22.5016 32.8531 22.6773 32.6773ZM53.6979 55.2041L77.5 38.726V66.6875C77.5 67.3008 77.2564 67.889 76.8227 68.3227C76.389 68.7564 75.8008 69 75.1875 69H24.3125C23.6992 69 23.111 68.7564 22.6773 68.3227C22.2436 67.889 22 67.3008 22 66.6875V38.726L45.8026 55.2044C46.9625 56.007 48.3395 56.4369 49.75 56.4369C51.1605 56.4369 52.538 56.0067 53.6979 55.2041Z" fill="white"/>
</svg>
